<svg viewBox="0 0 108 108" xmlns="http://www.w3.org/2000/svg">
    <!-- Face -->
    <path fill="#FFC107" d="M 54,20 C 30,20 20,40 20,60 C 20,90 40,100 54,100 C 68,100 88,90 88,60 C 88,40 78,20 54,20 Z"/>
    
    <!-- Hat Brim -->
    <path fill="#4E342E" d="M 20,45 C 54,20 54,20 88,45 C 95,50 85,60 85,60 L 23,60 C 23,60 13,50 20,45 Z"/>
    
    <!-- Hat Top -->
    <path fill="#FF5722" d="M 40,20 C 54,5 54,5 68,20 L 75,40 L 33,40 Z"/>
    
    <!-- Left Eye (Laughing Squint) -->
    <path fill="none" stroke="#000000" stroke-width="2" d="M 35,65 Q 40,60 45,65" />
    
    <!-- Right Eye (Laughing Squint) -->
    <path fill="none" stroke="#000000" stroke-width="2" d="M 63,65 Q 68,60 73,65" />
    
    <!-- Laughing Mouth -->
    <path fill="#D32F2F" d="M 40,80 Q 54,95 68,80 Z"/>
    
    <!-- Mongol Mustache -->
    <path fill="#000000" d="M 54,78 Q 30,85 25,95 Q 35,80 54,75 Q 73,80 83,95 Q 78,85 54,78 Z"/>
</svg>
